# xmcd CD database file
#
# Track frame offsets:
#	182
#	46505
#	84322
#	109572
#	132697
#	158552
#	204177
#
# Disc length: 3099 seconds
#
# Revision: 0
# Processed by: cddbd v1.5.2PL0 Copyright (c) Steve Scherf et al.
# Submitted via: CDex 1.70beta2
#
DISCID=490c1907
DTITLE=Tania Maria - Europe
DYEAR=1993
DGENRE=Jazz
TTITLE0=Funky Tambourine
TTITLE1=Senso Unico
TTITLE2=I Can Do It
TTITLE3=Chuleta
TTITLE4=O Bom É
TTITLE5=She's Outrageous
TTITLE6=Bom Bom Bom (Chi Chi Chi)
EXTD=YEAR: 1993
EXTT0=
EXTT1=
EXTT2=
EXTT3=
EXTT4=
EXTT5=
EXTT6=
PLAYORDER=
